<mxfile host="app.diagrams.net" modified="2024-03-14T12:36:48.794Z" agent="Mozilla/5.0 (Windows NT 10.0; Win64; x64) AppleWebKit/537.36 (KHTML, like Gecko) Chrome/121.0.0.0 Safari/537.36" version="24.0.2" etag="ScKALz-L00Y-wvsgqMCP" type="github">
  <diagram name="Trang-1" id="pOjTeljavo1dPIn7W74o">
    <mxGraphModel>
      <root>
        <mxCell id="0" />
        <mxCell id="1" parent="0" />
      </root>
    </mxGraphModel>
  </diagram>
</mxfile>
